<svg width="175" height="48" viewBox="0 0 175 48" fill="none" xmlns="http://www.w3.org/2000/svg">
<rect width="175" height="48" rx="10" fill="#3D518C"/>
<path d="M40.4118 18.6689C40.8422 22.3442 47.3261 29.968 55.7059 30.8228C64.1089 31.6776 71 27.2115 71 18.6689H40.4118Z" stroke="white" stroke-miterlimit="10" stroke-linecap="round" stroke-linejoin="round"/>
<path d="M66.8597 21.8086C66.6318 21.8086 66.4471 21.6226 66.4471 21.3931C66.4471 21.1636 66.6318 20.9775 66.8597 20.9775C67.0875 20.9775 67.2722 21.1636 67.2722 21.3931C67.2722 21.6226 67.0875 21.8086 66.8597 21.8086Z" fill="white" stroke="white" stroke-miterlimit="10"/>
<path d="M40.4121 12.0627C40.4121 12.0627 38.0046 11.4812 37.772 13.8596C37.5219 16.3834 40.4121 18.7386 40.4121 18.7386C40.4121 18.7386 39.7085 16.5346 40.4121 12.0627Z" stroke="white" stroke-miterlimit="10" stroke-linecap="round" stroke-linejoin="round"/>
<path d="M33.5449 18.4503C33.5449 18.4503 33.1754 16.0013 35.5651 15.9768C38.1011 15.9477 40.1954 19.0321 40.1954 19.0321C40.1954 19.0321 38.0611 18.1391 33.5449 18.4503Z" stroke="white" stroke-miterlimit="10" stroke-linecap="round" stroke-linejoin="round"/>
<path d="M61.2479 18.6689C61.0386 19.4017 60.9223 20.1751 60.9223 20.9718C60.9223 24.3795 62.975 27.3046 65.8943 28.5549" stroke="white" stroke-miterlimit="10" stroke-linecap="round" stroke-linejoin="round"/>
<path d="M59.4163 30.8754C59.4222 30.7358 59.428 30.6486 59.428 30.509C59.428 26.1883 56.0319 22.6875 51.8449 22.6875C49.228 22.6875 46.9194 24.0541 45.5586 26.1359" stroke="white" stroke-miterlimit="10" stroke-linecap="round" stroke-linejoin="round"/>
<path d="M56.8802 30.9274C56.9267 28.0605 54.6239 25.7344 51.8442 25.7344C50.1229 25.7344 48.6574 26.5718 47.7502 27.9267" stroke="white" stroke-miterlimit="10" stroke-linecap="round" stroke-linejoin="round"/>
<path d="M54.2637 18.6689C54.1125 18.9306 53.9787 19.2039 53.8566 19.4831C53.3914 20.5647 53.1878 21.7045 53.2111 22.8152" stroke="white" stroke-miterlimit="10" stroke-linecap="round" stroke-linejoin="round"/>
<path d="M57.5957 18.7383C57.0898 19.2093 56.6711 19.7967 56.3803 20.477C55.886 21.6226 55.8337 22.8555 56.1361 23.9778" stroke="white" stroke-miterlimit="10" stroke-linecap="round" stroke-linejoin="round"/>
<path d="M82.36 30V18.64H83.8V23.552H85.32L89.064 18.64H90.728L86.504 24.144L91.016 30H89.256L85.352 24.864H83.8V30H82.36ZM91.9019 27.584C91.9019 27.0507 92.0512 26.592 92.3499 26.208C92.6592 25.8133 93.0805 25.5093 93.6139 25.296C94.1472 25.0827 94.7659 24.976 95.4699 24.976C95.8432 24.976 96.2379 25.008 96.6539 25.072C97.0699 25.1253 97.4379 25.2107 97.7579 25.328V24.72C97.7579 24.08 97.5659 23.5787 97.1819 23.216C96.7979 22.8427 96.2539 22.656 95.5499 22.656C95.0912 22.656 94.6485 22.7413 94.2219 22.912C93.8059 23.072 93.3632 23.3067 92.8939 23.616L92.3819 22.624C92.9259 22.2507 93.4699 21.9733 94.0139 21.792C94.5579 21.6 95.1232 21.504 95.7099 21.504C96.7765 21.504 97.6192 21.8027 98.2379 22.4C98.8565 22.9867 99.1659 23.808 99.1659 24.864V28.4C99.1659 28.5707 99.1979 28.6987 99.2619 28.784C99.3365 28.8587 99.4539 28.9013 99.6139 28.912V30C99.4752 30.0213 99.3525 30.0373 99.2459 30.048C99.1499 30.0587 99.0699 30.064 99.0059 30.064C98.6752 30.064 98.4245 29.9733 98.2539 29.792C98.0939 29.6107 98.0032 29.4187 97.9819 29.216L97.9499 28.688C97.5872 29.1573 97.1125 29.52 96.5259 29.776C95.9392 30.032 95.3579 30.16 94.7819 30.16C94.2272 30.16 93.7312 30.048 93.2939 29.824C92.8565 29.5893 92.5152 29.28 92.2699 28.896C92.0245 28.5013 91.9019 28.064 91.9019 27.584ZM97.3419 28.176C97.4699 28.0267 97.5712 27.8773 97.6459 27.728C97.7205 27.568 97.7579 27.4347 97.7579 27.328V26.288C97.4272 26.16 97.0805 26.064 96.7179 26C96.3552 25.9253 95.9979 25.888 95.6459 25.888C94.9312 25.888 94.3499 26.032 93.9019 26.32C93.4645 26.5973 93.2459 26.9813 93.2459 27.472C93.2459 27.7387 93.3152 28 93.4539 28.256C93.6032 28.5013 93.8165 28.704 94.0939 28.864C94.3819 29.024 94.7339 29.104 95.1499 29.104C95.5872 29.104 96.0032 29.0187 96.3979 28.848C96.7925 28.6667 97.1072 28.4427 97.3419 28.176ZM103.356 30V22.896H100.476V21.648H107.644V22.896H104.764V30H103.356ZM108.402 27.584C108.402 27.0507 108.551 26.592 108.85 26.208C109.159 25.8133 109.581 25.5093 110.114 25.296C110.647 25.0827 111.266 24.976 111.97 24.976C112.343 24.976 112.738 25.008 113.154 25.072C113.57 25.1253 113.938 25.2107 114.258 25.328V24.72C114.258 24.08 114.066 23.5787 113.682 23.216C113.298 22.8427 112.754 22.656 112.05 22.656C111.591 22.656 111.149 22.7413 110.722 22.912C110.306 23.072 109.863 23.3067 109.394 23.616L108.882 22.624C109.426 22.2507 109.97 21.9733 110.514 21.792C111.058 21.6 111.623 21.504 112.21 21.504C113.277 21.504 114.119 21.8027 114.738 22.4C115.357 22.9867 115.666 23.808 115.666 24.864V28.4C115.666 28.5707 115.698 28.6987 115.762 28.784C115.837 28.8587 115.954 28.9013 116.114 28.912V30C115.975 30.0213 115.853 30.0373 115.746 30.048C115.65 30.0587 115.57 30.064 115.506 30.064C115.175 30.064 114.925 29.9733 114.754 29.792C114.594 29.6107 114.503 29.4187 114.482 29.216L114.45 28.688C114.087 29.1573 113.613 29.52 113.026 29.776C112.439 30.032 111.858 30.16 111.282 30.16C110.727 30.16 110.231 30.048 109.794 29.824C109.357 29.5893 109.015 29.28 108.77 28.896C108.525 28.5013 108.402 28.064 108.402 27.584ZM113.842 28.176C113.97 28.0267 114.071 27.8773 114.146 27.728C114.221 27.568 114.258 27.4347 114.258 27.328V26.288C113.927 26.16 113.581 26.064 113.218 26C112.855 25.9253 112.498 25.888 112.146 25.888C111.431 25.888 110.85 26.032 110.402 26.32C109.965 26.5973 109.746 26.9813 109.746 27.472C109.746 27.7387 109.815 28 109.954 28.256C110.103 28.5013 110.317 28.704 110.594 28.864C110.882 29.024 111.234 29.104 111.65 29.104C112.087 29.104 112.503 29.0187 112.898 28.848C113.293 28.6667 113.607 28.4427 113.842 28.176ZM117.181 30.064V28.8C117.459 28.8 117.704 28.7307 117.917 28.592C118.141 28.4427 118.339 28.1973 118.509 27.856C118.68 27.504 118.813 27.024 118.909 26.416C119.016 25.7973 119.085 25.0133 119.117 24.064L119.213 21.648H124.893V30H123.485V22.896H120.461L120.429 24.192C120.387 25.3333 120.291 26.2827 120.141 27.04C119.992 27.7973 119.784 28.3947 119.517 28.832C119.251 29.2693 118.92 29.584 118.525 29.776C118.141 29.968 117.693 30.064 117.181 30.064ZM130.815 30.16C130.186 30.16 129.615 30.048 129.103 29.824C128.591 29.5893 128.149 29.2747 127.775 28.88C127.402 28.4747 127.114 28.0107 126.911 27.488C126.709 26.9653 126.607 26.416 126.607 25.84C126.607 25.2533 126.709 24.6987 126.911 24.176C127.114 23.6533 127.402 23.1947 127.775 22.8C128.149 22.3947 128.591 22.08 129.103 21.856C129.626 21.6213 130.197 21.504 130.815 21.504C131.445 21.504 132.015 21.6213 132.527 21.856C133.039 22.08 133.482 22.3947 133.855 22.8C134.239 23.1947 134.533 23.6533 134.735 24.176C134.938 24.6987 135.039 25.2533 135.039 25.84C135.039 26.416 134.938 26.9653 134.735 27.488C134.533 28.0107 134.245 28.4747 133.871 28.88C133.498 29.2747 133.05 29.5893 132.527 29.824C132.015 30.048 131.445 30.16 130.815 30.16ZM128.047 25.856C128.047 26.432 128.17 26.9547 128.415 27.424C128.671 27.8933 129.007 28.2667 129.423 28.544C129.839 28.8107 130.303 28.944 130.815 28.944C131.327 28.944 131.791 28.8053 132.207 28.528C132.634 28.2507 132.97 27.8773 133.215 27.408C133.471 26.928 133.599 26.4 133.599 25.824C133.599 25.248 133.471 24.7253 133.215 24.256C132.97 23.7867 132.634 23.4133 132.207 23.136C131.791 22.8587 131.327 22.72 130.815 22.72C130.303 22.72 129.839 22.864 129.423 23.152C129.007 23.4293 128.671 23.8027 128.415 24.272C128.17 24.7413 128.047 25.2693 128.047 25.856ZM136.729 30V21.648H141.881V22.896H138.137V30H136.729Z" fill="white"/>
</svg>
